<svg width="128" height="128" viewBox="0 0 128 128" fill="none" xmlns="http://www.w3.org/2000/svg">
<path d="M58.067 49.3168C64.9266 49.3168 70.4874 54.8776 70.4874 61.7373V83.4635C70.4874 90.3231 64.9266 95.8839 58.067 95.8839H44.7365L36.9146 105.539C36.3728 106.208 35.2914 105.825 35.2914 104.964V95.8839H35.2578C28.3982 95.8839 22.8374 90.3231 22.8374 83.4635V61.7373C22.8374 54.8776 28.3982 49.3168 35.2579 49.3168H58.067Z" fill="black"/>
<path d="M71.6739 28.3952C64.8142 28.3952 59.2534 33.9561 59.2534 40.8157V74.4544C59.2534 81.314 64.8142 86.8748 71.6739 86.8748H87.9038L98.2413 99.6352C98.7831 100.304 99.8645 99.9208 99.8645 99.0602V86.8748H99.8978C106.757 86.8748 112.318 81.314 112.318 74.4544V40.8157C112.318 33.956 106.757 28.3952 99.8978 28.3952H71.6739Z" fill="black"/>
<path fill-rule="evenodd" clip-rule="evenodd" d="M52.3704 45.7503C59.433 45.7503 65.1584 51.4757 65.1584 58.5384V79.5293C65.1584 86.5919 59.433 92.3174 52.3704 92.3174H39.4073L29.962 103.976V92.3131C23.054 92.1357 17.5084 86.4801 17.5084 79.5293V58.5384C17.5084 51.4757 23.2338 45.7503 30.2965 45.7503H52.3704Z" fill="white"/>
<path fill-rule="evenodd" clip-rule="evenodd" d="M39.4073 92.3174H52.3704C59.4331 92.3174 65.1585 86.5919 65.1585 79.5293V58.5384C65.1585 51.4757 59.4331 45.7503 52.3704 45.7503H30.2965C23.2339 45.7503 17.5084 51.4757 17.5084 58.5384V79.5293C17.5084 86.4801 23.054 92.1357 29.9621 92.3131V103.976L39.4073 92.3174ZM28.1352 93.9854C21.0881 92.9406 15.6816 86.8666 15.6816 79.5293V58.5384C15.6816 50.4667 22.2249 43.9234 30.2965 43.9234H52.3704C60.442 43.9234 66.9854 50.4667 66.9854 58.5384V79.5293C66.9854 87.6009 60.442 94.1442 52.3704 94.1442H40.2785L31.3816 105.126C30.8945 105.728 30.0815 105.957 29.3521 105.698C28.6227 105.44 28.1352 104.75 28.1352 103.976V93.9854Z" fill="black"/>
<path fill-rule="evenodd" clip-rule="evenodd" d="M18.5054 58.8762C18.5054 52.318 23.8218 47.0016 30.38 47.0016H52.2867C58.8449 47.0016 64.1614 52.318 64.1614 58.8762V79.3579C64.1614 85.9161 58.8449 91.2326 52.2867 91.2326H39.1989C38.6944 91.2326 38.2854 90.8237 38.2854 90.3192C38.2854 89.8147 38.6944 89.4057 39.1989 89.4057H52.2867C57.836 89.4057 62.3345 84.9072 62.3345 79.3579V58.8762C62.3345 53.327 57.836 48.8284 52.2867 48.8284H30.38C24.8308 48.8284 20.3322 53.327 20.3322 58.8762V79.358C20.3322 84.9072 24.8308 89.4057 30.38 89.4057H31.274C31.7785 89.4057 32.1874 89.8147 32.1874 90.3192C32.1874 90.8237 31.7785 91.2326 31.274 91.2326H30.38C23.8218 91.2326 18.5054 85.9161 18.5054 79.358V58.8762Z" fill="black"/>
<path fill-rule="evenodd" clip-rule="evenodd" d="M24.887 65.3869C24.887 64.6302 25.5004 64.0168 26.2571 64.0168H37.5304C38.2871 64.0168 38.9005 64.6302 38.9005 65.3869C38.9005 66.1436 38.2871 66.7571 37.5304 66.7571H26.2571C25.5004 66.7571 24.887 66.1436 24.887 65.3869Z" fill="black"/>
<path fill-rule="evenodd" clip-rule="evenodd" d="M24.887 56.7231C24.887 55.9664 25.5004 55.3529 26.2571 55.3529H52.8211C53.5778 55.3529 54.1913 55.9664 54.1913 56.7231C54.1913 57.4798 53.5778 58.0932 52.8211 58.0932H26.2571C25.5004 58.0932 24.887 57.4798 24.887 56.7231Z" fill="black"/>
<path fill-rule="evenodd" clip-rule="evenodd" d="M24.887 73.5091C24.887 72.7523 25.5004 72.1389 26.2571 72.1389H30.9471C31.7038 72.1389 32.3173 72.7523 32.3173 73.5091C32.3173 74.2658 31.7038 74.8792 30.9471 74.8792H26.2571C25.5004 74.8792 24.887 74.2658 24.887 73.5091Z" fill="black"/>
<path fill-rule="evenodd" clip-rule="evenodd" d="M64.9502 23.9475C57.8875 23.9475 52.1621 29.6729 52.1621 36.7356V69.639C52.1621 76.7017 57.8875 82.4271 64.9502 82.4271H80.8129L92.7735 97.191V82.4228C99.6815 82.2453 105.227 76.5897 105.227 69.639V36.7356C105.227 29.6729 99.5015 23.9475 92.4389 23.9475H64.9502Z" fill="white"/>
<path fill-rule="evenodd" clip-rule="evenodd" d="M80.8129 82.4271H64.9502C57.8875 82.4271 52.1621 76.7017 52.1621 69.639V36.7356C52.1621 29.6729 57.8875 23.9475 64.9502 23.9475H92.4388C99.5015 23.9475 105.227 29.6729 105.227 36.7356V69.639C105.227 76.5897 99.6815 82.2453 92.7735 82.4228V97.191L80.8129 82.4271ZM94.6004 84.0951C101.647 83.0502 107.054 76.9762 107.054 69.639V36.7356C107.054 28.6639 100.51 22.1206 92.4388 22.1206H64.9502C56.8785 22.1206 50.3352 28.664 50.3352 36.7356V69.639C50.3352 77.7106 56.8785 84.2539 64.9502 84.2539H79.9417L91.354 98.341C91.8411 98.9422 92.6541 99.1714 93.3835 98.913C94.1129 98.6547 94.6004 97.9648 94.6004 97.191V84.0951Z" fill="black"/>
<path fill-rule="evenodd" clip-rule="evenodd" d="M53.3152 37.3325C53.3152 30.7743 58.6317 25.4579 65.1898 25.4579H92.0647C98.6229 25.4579 103.939 30.7744 103.939 37.3325V68.7732C103.939 75.3314 98.6229 80.6479 92.0647 80.6479H91.7425C91.2381 80.6479 90.8291 80.2389 90.8291 79.7344C90.8291 79.2299 91.2381 78.821 91.7425 78.821H92.0647C97.6139 78.821 102.112 74.3224 102.112 68.7732V37.3325C102.112 31.7833 97.6139 27.2848 92.0647 27.2848H65.1898C59.6406 27.2848 55.1421 31.7833 55.1421 37.3325V68.7732C55.1421 74.3224 59.6406 78.821 65.1898 78.821H81.5509C82.0554 78.821 82.4643 79.2299 82.4643 79.7344C82.4643 80.2389 82.0554 80.6479 81.5509 80.6479H65.1898C58.6317 80.6479 53.3152 75.3314 53.3152 68.7732V37.3325Z" fill="black"/>
<path fill-rule="evenodd" clip-rule="evenodd" d="M61.7968 55.8616C61.7968 54.8527 62.6147 54.0348 63.6237 54.0348H93.778C94.7869 54.0348 95.6048 54.8527 95.6048 55.8616C95.6048 56.8706 94.7869 57.6885 93.778 57.6885H63.6237C62.6147 57.6885 61.7968 56.8706 61.7968 55.8616Z" fill="black"/>
<path fill-rule="evenodd" clip-rule="evenodd" d="M61.7968 46.3688C61.7968 45.3599 62.6147 44.542 63.6237 44.542H93.778C94.7869 44.542 95.6048 45.3599 95.6048 46.3688C95.6048 47.3778 94.7869 48.1957 93.778 48.1957H63.6237C62.6147 48.1957 61.7968 47.3778 61.7968 46.3688Z" fill="black"/>
<path fill-rule="evenodd" clip-rule="evenodd" d="M61.7966 37.2355C61.7966 36.2266 62.6145 35.4087 63.6235 35.4087H93.7778C94.7868 35.4087 95.6047 36.2266 95.6047 37.2355C95.6047 38.2445 94.7868 39.0624 93.7778 39.0624H63.6235C62.6145 39.0624 61.7966 38.2445 61.7966 37.2355Z" fill="black"/>
<path fill-rule="evenodd" clip-rule="evenodd" d="M61.7968 64.76C61.7968 63.751 62.6147 62.9331 63.6237 62.9331H79.9932C81.0021 62.9331 81.82 63.751 81.82 64.76C81.82 65.7689 81.0021 66.5868 79.9932 66.5868H63.6237C62.6147 66.5868 61.7968 65.7689 61.7968 64.76Z" fill="black"/>
</svg>
