<svg width="128" height="128" viewBox="0 0 128 128" fill="none" xmlns="http://www.w3.org/2000/svg">
<path fill-rule="evenodd" clip-rule="evenodd" d="M64.031 88.4152C65.1356 88.4152 66.031 89.3106 66.031 90.4152V107.864C66.031 108.969 65.1356 109.864 64.031 109.864C62.9264 109.864 62.031 108.969 62.031 107.864V90.4152C62.031 89.3106 62.9264 88.4152 64.031 88.4152Z" fill="black"/>
<path fill-rule="evenodd" clip-rule="evenodd" d="M65.271 16.1606C65.406 17.2569 64.6267 18.255 63.5304 18.39C60.5589 18.7559 57.5838 19.5133 54.6717 20.6921C36.7906 27.9302 28.1628 48.2933 35.4009 66.1744C42.639 84.0555 63.0021 92.6833 80.8832 85.4452C84.0763 84.1526 86.9714 82.4434 89.5331 80.4067C90.3977 79.7192 91.6559 79.8629 92.3433 80.7275C93.0307 81.5921 92.8871 82.8502 92.0225 83.5377C89.1637 85.8105 85.9363 87.715 82.384 89.1529C62.4552 97.2199 39.7602 87.604 31.6931 67.6752C23.6261 47.7464 33.242 25.0513 53.1708 16.9843C56.4103 15.673 59.7258 14.8283 63.0416 14.42C64.1379 14.285 65.136 15.0643 65.271 16.1606Z" fill="black"/>
<path fill-rule="evenodd" clip-rule="evenodd" d="M50.9751 15.3624C51.9605 14.8633 53.1639 15.2575 53.663 16.2428L89.4133 86.8209C89.9124 87.8063 89.5182 89.0097 88.5328 89.5088C87.5475 90.0079 86.3441 89.6138 85.8449 88.6284L50.0947 18.0503C49.5956 17.065 49.9897 15.8615 50.9751 15.3624Z" fill="black"/>
<path d="M97.1607 53.8614C97.1607 70.1632 83.9454 83.3785 67.6436 83.3785C51.3417 83.3785 38.1265 70.1632 38.1265 53.8614C38.1265 37.5595 51.3417 24.3443 67.6436 24.3443C83.9454 24.3443 97.1607 37.5595 97.1607 53.8614Z" fill="white"/>
<path fill-rule="evenodd" clip-rule="evenodd" d="M99.1607 53.8614C99.1607 71.2678 85.05 85.3785 67.6436 85.3785C50.2372 85.3785 36.1265 71.2678 36.1265 53.8614C36.1265 36.455 50.2372 22.3443 67.6436 22.3443C85.05 22.3443 99.1607 36.455 99.1607 53.8614ZM67.6436 83.3785C83.9454 83.3785 97.1607 70.1632 97.1607 53.8614C97.1607 37.5595 83.9454 24.3443 67.6436 24.3443C51.3417 24.3443 38.1265 37.5595 38.1265 53.8614C38.1265 70.1632 51.3417 83.3785 67.6436 83.3785Z" fill="black"/>
<path fill-rule="evenodd" clip-rule="evenodd" d="M58.2848 35.9429C58.5741 35.6151 59.0428 35.5132 59.4421 35.6913L67.7509 39.3983C67.7643 39.4043 67.7775 39.4106 67.7907 39.4171L72.1368 41.5902C72.5721 41.8079 72.7875 42.3074 72.647 42.7734L70.2183 50.8265C70.0909 51.2488 69.7019 51.5378 69.2609 51.5378H64.8236L65.1762 53.5828L69.7172 55.9115C69.9916 56.0523 70.1858 56.3118 70.2433 56.6148C70.3008 56.9178 70.2153 57.2304 70.0116 57.462L64.6364 63.5701V67.1554C64.6364 67.4465 64.5096 67.7232 64.289 67.9132L59.6872 71.8758C59.3364 72.1778 58.8243 72.1997 58.4491 71.9287L53.8789 68.6281L48.6713 65.4526C48.4587 65.323 48.3021 65.1187 48.2322 64.8798L46.6982 59.6388C46.6293 59.4032 46.6494 59.1506 46.7547 58.9289L48.991 54.2207L46.7367 48.8815C46.6209 48.6074 46.6333 48.2959 46.7705 48.0317L50.2218 41.3847C50.2429 41.344 50.2668 41.3049 50.2933 41.2675L52.4664 38.1996C52.6538 37.9349 52.958 37.7776 53.2824 37.7776H56.6659L58.2848 35.9429ZM59.2983 37.8172L57.8671 39.4393C57.6772 39.6544 57.4041 39.7776 57.1172 39.7776H53.7995L51.9651 42.3674L48.762 48.5364L51.0079 53.8558C51.1189 54.1186 51.1123 54.4162 50.99 54.6739L48.7247 59.4428L50.0429 63.9465L54.9534 66.9408C54.9756 66.9543 54.9973 66.9687 55.0183 66.9839L58.9802 69.8452L62.6364 66.6969V63.1927C62.6364 62.9496 62.7251 62.7147 62.8857 62.5321L67.6616 57.105L63.8193 55.1346C63.5395 54.9912 63.3435 54.7245 63.2901 54.4147L62.651 50.7077C62.6009 50.4171 62.6816 50.1191 62.8716 49.8936C63.0616 49.668 63.3415 49.5378 63.6364 49.5378H68.518L70.489 43.0024L66.9159 41.2158L59.2983 37.8172Z" fill="black"/>
<path fill-rule="evenodd" clip-rule="evenodd" d="M90.44 47.7711C90.7466 47.9505 90.9351 48.2791 90.9351 48.6343V55.7061C90.9351 55.8496 90.9042 55.9914 90.8446 56.1219L88.4753 61.3046V66.3139C88.4753 66.6926 88.2613 67.0389 87.9226 67.2083L80.8508 70.7442C80.5711 70.884 80.2422 70.885 79.9618 70.7469C79.6813 70.6088 79.4816 70.3475 79.4219 70.0406L78.3458 64.5062C78.3094 64.3193 78.3272 64.1259 78.397 63.9488L80.2889 59.1463L79.4218 54.6663C79.3769 54.4343 79.4156 54.1939 79.531 53.9877L81.6833 50.1443C81.8386 49.867 82.1164 49.68 82.4318 49.6406L87.1563 49.05L89.4448 47.7628C89.7545 47.5886 90.1333 47.5918 90.44 47.7711ZM88.9351 50.3442L87.9656 50.8895C87.8525 50.9531 87.7281 50.9941 87.5994 51.0102L83.1814 51.5625L81.4549 54.6456L82.3077 59.052C82.3438 59.2387 82.326 59.4317 82.2564 59.6086L80.3647 64.4106L81.1339 68.3666L86.4753 65.6958V61.0869C86.4753 60.9434 86.5062 60.8016 86.5659 60.6711L88.9351 55.4884V50.3442Z" fill="black"/>
<path d="M63.741 101.7C54.3145 101.7 46.6729 105.495 46.6729 110.176H80.8092C80.8092 105.495 73.1675 101.7 63.741 101.7Z" fill="white"/>
<path fill-rule="evenodd" clip-rule="evenodd" d="M46.6729 112.176C45.5683 112.176 44.6729 111.281 44.6729 110.176C44.6729 106.663 47.4862 104.028 50.7825 102.391C54.2022 100.693 58.7865 99.7002 63.741 99.7002C68.6955 99.7002 73.2798 100.693 76.6996 102.391C79.9958 104.028 82.8092 106.663 82.8092 110.176C82.8092 111.281 81.9137 112.176 80.8092 112.176H46.6729ZM80.3313 108.176C78.5212 104.46 71.7802 101.7 63.741 101.7C55.7019 101.7 48.9608 104.46 47.1508 108.176C46.8384 108.817 46.6729 109.487 46.6729 110.176H80.8092C80.8092 109.487 80.6437 108.817 80.3313 108.176Z" fill="black"/>
<path d="M41.9702 112.134C41.9702 111.605 42.3991 111.176 42.9281 111.176H85.1341C85.6631 111.176 86.092 111.605 86.092 112.134C86.092 112.663 85.6631 113.092 85.1341 113.092H42.9281C42.3991 113.092 41.9702 112.663 41.9702 112.134Z" fill="black"/>
<path fill-rule="evenodd" clip-rule="evenodd" d="M85.1341 113.092C85.6631 113.092 86.092 112.663 86.092 112.134C86.092 111.605 85.6631 111.176 85.1341 111.176H42.9281C42.3991 111.176 41.9702 111.605 41.9702 112.134C41.9702 112.663 42.3991 113.092 42.9281 113.092H85.1341ZM42.9281 109.176H85.1341C86.7677 109.176 88.092 110.501 88.092 112.134C88.092 113.768 86.7677 115.092 85.1341 115.092H42.9281C41.2945 115.092 39.9702 113.768 39.9702 112.134C39.9702 110.501 41.2945 109.176 42.9281 109.176Z" fill="black"/>
</svg>
