<svg width="128" height="128" viewBox="0 0 128 128" fill="none" xmlns="http://www.w3.org/2000/svg">
<path d="M22.592 105.766C22.592 104.304 23.777 103.119 25.2388 103.119H102.761C104.223 103.119 105.408 104.304 105.408 105.766C105.408 107.227 104.223 108.412 102.761 108.412H25.2388C23.777 108.412 22.592 107.227 22.592 105.766Z" fill="black"/>
<path d="M22.592 21.0697C22.592 19.608 23.777 18.423 25.2388 18.423H102.761C104.223 18.423 105.408 19.608 105.408 21.0697C105.408 22.5315 104.223 23.7165 102.761 23.7165H25.2388C23.777 23.7165 22.592 22.5315 22.592 21.0697Z" fill="black"/>
<path d="M32.4508 28.34C32.4508 24.3027 35.7236 21.0299 39.7609 21.0299H88.1045C92.1418 21.0299 95.4146 24.3027 95.4146 28.34V98.7547C95.4146 102.792 92.1418 106.065 88.1045 106.065H39.7609C35.7236 106.065 32.4508 102.792 32.4508 98.7547V28.34Z" fill="white"/>
<path fill-rule="evenodd" clip-rule="evenodd" d="M39.7609 19.2024H88.1046C93.1511 19.2024 97.2422 23.2934 97.2422 28.34V98.7547C97.2422 103.801 93.1511 107.892 88.1046 107.892H39.7609C34.7143 107.892 30.6233 103.801 30.6233 98.7547V28.34C30.6233 23.2934 34.7143 19.2024 39.7609 19.2024ZM39.7609 21.0299C35.7237 21.0299 32.4508 24.3027 32.4508 28.34V98.7547C32.4508 102.792 35.7236 106.065 39.7609 106.065H88.1046C92.1418 106.065 95.4146 102.792 95.4146 98.7547V28.34C95.4146 24.3027 92.1418 21.0299 88.1046 21.0299H39.7609Z" fill="black"/>
<path d="M32.4508 95.7476H95.4146V98.9409H32.4508V95.7476Z" fill="black"/>
<path d="M26.5143 21.4814C26.5143 18.4535 28.9689 15.9988 31.9969 15.9988H95.8688C98.8967 15.9988 101.351 18.4535 101.351 21.4814V21.9937C101.351 25.0217 98.8967 27.4763 95.8688 27.4763H31.9968C28.9689 27.4763 26.5143 25.0217 26.5143 21.9937V21.4814Z" fill="white"/>
<path fill-rule="evenodd" clip-rule="evenodd" d="M31.9969 14.1713H95.8688C99.9061 14.1713 103.179 17.4442 103.179 21.4814V21.9937C103.179 26.031 99.9061 29.3038 95.8688 29.3038H31.9969C27.9596 29.3038 24.6868 26.031 24.6868 21.9937V21.4814C24.6868 17.4442 27.9596 14.1713 31.9969 14.1713ZM31.9969 15.9988C28.9689 15.9988 26.5143 18.4535 26.5143 21.4814V21.9937C26.5143 25.0217 28.9689 27.4763 31.9969 27.4763H95.8688C98.8967 27.4763 101.351 25.0217 101.351 21.9937V21.4814C101.351 18.4535 98.8968 15.9988 95.8688 15.9988H31.9969Z" fill="black"/>
<path fill-rule="evenodd" clip-rule="evenodd" d="M80.9457 18.8682C80.9457 18.3635 81.3548 17.9544 81.8594 17.9544H97.8883C98.393 17.9544 98.8021 18.3635 98.8021 18.8682C98.8021 19.3728 98.393 19.7819 97.8883 19.7819H81.8594C81.3548 19.7819 80.9457 19.3728 80.9457 18.8682Z" fill="black"/>
<path d="M31.2635 27.4763H96.602C98.3402 27.4763 99.8603 26.5425 100.688 25.1492L27.2262 25.2293C28.064 26.5782 29.5589 27.4763 31.2635 27.4763Z" fill="black"/>
<path d="M26.5143 105.386C26.5143 102.358 28.9689 99.9031 31.9969 99.9031H95.8688C98.8967 99.9031 101.351 102.358 101.351 105.386V106.519C101.351 109.547 98.8967 112.001 95.8688 112.001H31.9968C28.9689 112.001 26.5143 109.547 26.5143 106.519V105.386Z" fill="white"/>
<path fill-rule="evenodd" clip-rule="evenodd" d="M31.9969 98.0756H95.8688C99.9061 98.0756 103.179 101.348 103.179 105.386V106.519C103.179 110.556 99.9061 113.829 95.8688 113.829H31.9969C27.9596 113.829 24.6868 110.556 24.6868 106.519V105.386C24.6868 101.348 27.9596 98.0756 31.9969 98.0756ZM31.9969 99.9031C28.9689 99.9031 26.5143 102.358 26.5143 105.386V106.519C26.5143 109.547 28.9689 112.001 31.9969 112.001H95.8688C98.8967 112.001 101.351 109.547 101.351 106.519V105.386C101.351 102.358 98.8968 99.9031 95.8688 99.9031H31.9969Z" fill="black"/>
<path fill-rule="evenodd" clip-rule="evenodd" d="M28.7032 103.564C28.7032 103.059 29.1124 102.65 29.617 102.65H51.9783C52.483 102.65 52.8921 103.059 52.8921 103.564C52.8921 104.069 52.483 104.478 51.9783 104.478H29.617C29.1124 104.478 28.7032 104.069 28.7032 103.564Z" fill="black"/>
<path fill-rule="evenodd" clip-rule="evenodd" d="M90.7411 108.011C90.7411 107.507 91.1502 107.097 91.6549 107.097H101.351C101.856 107.097 102.265 107.507 102.265 108.011C102.265 108.516 101.856 108.925 101.351 108.925H91.6549C91.1502 108.925 90.7411 108.516 90.7411 108.011Z" fill="black"/>
<path d="M31.2635 112.172H96.602C98.3402 112.172 99.8603 111.238 100.688 109.845L27.2262 109.925C28.064 111.274 29.5589 112.172 31.2635 112.172Z" fill="black"/>
<path fill-rule="evenodd" clip-rule="evenodd" d="M39.5872 37.4696C39.5872 36.965 39.9963 36.5559 40.5009 36.5559H87.895C88.3997 36.5559 88.8088 36.965 88.8088 37.4696C88.8088 37.9743 88.3997 38.3834 87.895 38.3834H40.5009C39.9963 38.3834 39.5872 37.9743 39.5872 37.4696Z" fill="black"/>
<path fill-rule="evenodd" clip-rule="evenodd" d="M39.5872 53.2017C39.5872 52.697 39.9963 52.2879 40.5009 52.2879H87.895C88.3997 52.2879 88.8088 52.697 88.8088 53.2017C88.8088 53.7063 88.3997 54.1155 87.895 54.1155H40.5009C39.9963 54.1155 39.5872 53.7063 39.5872 53.2017Z" fill="black"/>
<path fill-rule="evenodd" clip-rule="evenodd" d="M39.5872 58.0499C39.5872 57.5453 39.9963 57.1362 40.5009 57.1362H87.895C88.3997 57.1362 88.8088 57.5453 88.8088 58.0499C88.8088 58.5546 88.3997 58.9637 87.895 58.9637H40.5009C39.9963 58.9637 39.5872 58.5546 39.5872 58.0499Z" fill="black"/>
<path fill-rule="evenodd" clip-rule="evenodd" d="M39.5872 62.8982C39.5872 62.3936 39.9963 61.9845 40.5009 61.9845H87.895C88.3997 61.9845 88.8088 62.3936 88.8088 62.8982C88.8088 63.4029 88.3997 63.812 87.895 63.812H40.5009C39.9963 63.812 39.5872 63.4029 39.5872 62.8982Z" fill="black"/>
<path fill-rule="evenodd" clip-rule="evenodd" d="M39.5872 67.6475C39.5872 67.1429 39.9963 66.7338 40.5009 66.7338H68.8978C69.4025 66.7338 69.8116 67.1429 69.8116 67.6475C69.8116 68.1522 69.4025 68.5613 68.8978 68.5613H40.5009C39.9963 68.5613 39.5872 68.1522 39.5872 67.6475Z" fill="black"/>
<path fill-rule="evenodd" clip-rule="evenodd" d="M39.5872 42.2081C39.5872 41.7035 39.9963 41.2944 40.5009 41.2944H66.372C66.8767 41.2944 67.2858 41.7035 67.2858 42.2081C67.2858 42.7128 66.8767 43.1219 66.372 43.1219H40.5009C39.9963 43.1219 39.5872 42.7128 39.5872 42.2081Z" fill="black"/>
<path fill-rule="evenodd" clip-rule="evenodd" d="M39.5872 85.6445C39.5872 85.1398 39.9963 84.7307 40.5009 84.7307H53.7072C54.2119 84.7307 54.621 85.1398 54.621 85.6445C54.621 86.1491 54.2119 86.5582 53.7072 86.5582H40.5009C39.9963 86.5582 39.5872 86.1491 39.5872 85.6445Z" fill="black"/>
<path fill-rule="evenodd" clip-rule="evenodd" d="M76.5963 80.7021C76.939 80.3593 77.4039 80.1668 77.8886 80.1668H83.9936C85.0029 80.1668 85.8211 80.985 85.8211 81.9943V91.2222C85.8211 91.9124 85.4322 92.5438 84.8158 92.8543C84.1993 93.1648 83.4605 93.1016 82.9058 92.6907L80.9411 91.2354L78.9763 92.6907C78.4216 93.1016 77.6828 93.1648 77.0664 92.8543C76.4499 92.5438 76.061 91.9124 76.061 91.2222V81.9943C76.061 81.5096 76.2536 81.0448 76.5963 80.7021ZM80.9411 88.9612L83.9936 91.2222V81.9943H77.8886V91.2222L80.9411 88.9612Z" fill="black"/>
<path d="M88.0929 79.455C88.0929 80.3307 87.0678 80.8024 86.7726 81.5742C86.4728 82.3581 86.8987 83.4402 86.3531 84.0583C85.6917 84.8077 84.5051 84.5502 83.5786 84.9598C82.7189 85.3399 82.1341 86.4144 81.1336 86.4144C80.1332 86.4144 79.5483 85.3399 78.6886 84.9598C77.7621 84.5502 76.5756 84.8077 75.9141 84.0583C75.3686 83.4402 75.7945 82.3581 75.4946 81.5742C75.1994 80.8024 74.1743 80.3307 74.1743 79.455C74.1743 78.5794 75.1994 78.1077 75.4946 77.3359C75.7607 76.6402 75.2719 75.6318 75.7341 75.0641C76.3491 74.3088 77.1193 74.5484 77.9962 74.1048C78.939 73.6278 80.0049 72.4957 81.1336 72.4957C82.2623 72.4957 83.3283 73.6278 84.271 74.1048C85.1479 74.5484 85.9182 74.3088 86.5331 75.0641C86.9954 75.6318 86.5065 76.6402 86.7726 77.3359C87.0678 78.1077 88.0929 78.5794 88.0929 79.455Z" fill="white"/>
<path fill-rule="evenodd" clip-rule="evenodd" d="M79.2456 74.4034C78.991 74.5796 78.7041 74.7707 78.4087 74.9201C77.9447 75.1549 77.4622 75.2548 77.154 75.3187C77.0862 75.3327 77.0268 75.345 76.9779 75.3566C76.6961 75.4235 76.5745 75.4836 76.4521 75.6296C76.4504 75.6418 76.4258 75.7399 76.4519 76.0828C76.4545 76.1167 76.4576 76.1546 76.461 76.1954C76.4745 76.358 76.4918 76.567 76.493 76.7619C76.4945 77.0155 76.4723 77.3375 76.3481 77.6623C76.2238 77.9873 76.0351 78.2496 75.868 78.4518C75.7577 78.5851 75.6223 78.7309 75.5135 78.8479C75.4709 78.8938 75.4324 78.9353 75.4011 78.9698C75.1112 79.2901 75.088 79.3959 75.088 79.4551C75.088 79.5142 75.1112 79.6201 75.4011 79.9403C75.4324 79.9749 75.4709 80.0163 75.5135 80.0622C75.6223 80.1792 75.7577 80.325 75.868 80.4584C76.0351 80.6605 76.2238 80.9229 76.3481 81.2478C76.4721 81.5721 76.5096 81.8954 76.5226 82.1618C76.5317 82.3491 76.5293 82.5557 76.5273 82.7235C76.5266 82.7811 76.526 82.834 76.5259 82.8801C76.5251 83.3482 76.5809 83.4329 76.5992 83.4537C76.703 83.5713 76.8776 83.658 77.3486 83.7346C77.417 83.7457 77.4968 83.7568 77.5851 83.7691C77.9857 83.8248 78.5624 83.9049 79.058 84.1241C79.3788 84.2659 79.6483 84.4606 79.8659 84.6359C79.9774 84.7258 80.1273 84.8555 80.2541 84.9653C80.33 85.031 80.3977 85.0896 80.4438 85.1281C80.8027 85.4277 80.9804 85.5006 81.1336 85.5006C81.2867 85.5006 81.4644 85.4277 81.8233 85.1281C81.8695 85.0896 81.9371 85.031 82.013 84.9653C82.1398 84.8555 82.2897 84.7258 82.4012 84.6359C82.6188 84.4606 82.8883 84.2659 83.2091 84.1241C83.7048 83.9049 84.2814 83.8248 84.682 83.7691C84.7703 83.7568 84.8501 83.7457 84.9186 83.7346C85.3895 83.658 85.5641 83.5713 85.668 83.4537C85.6863 83.4329 85.742 83.3482 85.7412 82.8801C85.7411 82.834 85.7405 82.7811 85.7398 82.7235C85.7379 82.5557 85.7354 82.3491 85.7446 82.1618C85.7575 81.8954 85.795 81.5721 85.9191 81.2478C86.0434 80.9229 86.232 80.6605 86.3992 80.4584C86.5094 80.325 86.6449 80.1792 86.7536 80.0622C86.7962 80.0163 86.8347 79.9749 86.866 79.9403C87.1559 79.6201 87.1791 79.5142 87.1791 79.4551C87.1791 79.3959 87.1559 79.2901 86.866 78.9698C86.8347 78.9353 86.7962 78.8938 86.7536 78.8479C86.6449 78.7309 86.5094 78.5851 86.3992 78.4518C86.232 78.2496 86.0434 77.9873 85.9191 77.6623C85.7948 77.3375 85.7726 77.0155 85.7741 76.7619C85.7753 76.567 85.7926 76.358 85.8061 76.1954C85.8095 76.1546 85.8127 76.1167 85.8152 76.0828C85.8413 75.7399 85.8167 75.6418 85.815 75.6296C85.6926 75.4836 85.571 75.4235 85.2892 75.3566C85.2403 75.345 85.181 75.3327 85.1132 75.3187C84.805 75.2548 84.3224 75.1549 83.8585 74.9201C83.563 74.7707 83.2761 74.5796 83.0216 74.4034C82.9344 74.3431 82.8519 74.2851 82.7719 74.2289C82.6016 74.1092 82.4424 73.9973 82.2729 73.8868C81.7648 73.5555 81.4111 73.4095 81.1336 73.4095C80.856 73.4095 80.5023 73.5555 79.9943 73.8868C79.8248 73.9973 79.6656 74.1092 79.4953 74.2289C79.4152 74.2851 79.3327 74.3431 79.2456 74.4034ZM78.996 72.356C79.5388 72.002 80.2824 71.582 81.1336 71.582C81.9847 71.582 82.7283 72.002 83.2711 72.356C83.4679 72.4844 83.6701 72.6264 83.8524 72.7544C83.926 72.8061 83.9964 72.8556 84.0619 72.9009C84.3077 73.0711 84.5075 73.2004 84.6835 73.2894C84.912 73.405 85.0968 73.4444 85.3722 73.5031C85.4714 73.5243 85.5823 73.5479 85.7113 73.5785C86.1803 73.6898 86.7524 73.8863 87.2416 74.4872C87.7249 75.0807 87.6673 75.8319 87.6392 76.1996C87.6386 76.207 87.638 76.2142 87.6375 76.2213C87.6328 76.2831 87.6282 76.339 87.624 76.3907C87.6117 76.5404 87.6023 76.6547 87.6016 76.7727C87.6007 76.9215 87.6172 76.9865 87.626 77.0095C87.6493 77.0704 87.6995 77.1565 87.8076 77.2872C87.8844 77.3801 87.9562 77.4572 88.0444 77.5518C88.0961 77.6074 88.1535 77.6689 88.2208 77.7433C88.5173 78.0707 89.0066 78.6385 89.0066 79.4551C89.0066 80.2716 88.5173 80.8394 88.2208 81.1668C88.1535 81.2412 88.0961 81.3028 88.0444 81.3583C87.9562 81.453 87.8844 81.5301 87.8076 81.6229C87.6995 81.7536 87.6493 81.8397 87.626 81.9007C87.6001 81.9683 87.5785 82.0743 87.5699 82.2505C87.5636 82.3795 87.5651 82.4987 87.5668 82.644C87.5676 82.7142 87.5686 82.7904 87.5687 82.8768C87.5695 83.3002 87.5654 84.0656 87.0381 84.663C86.4805 85.2947 85.7312 85.454 85.2118 85.5384C85.0574 85.5635 84.9209 85.5833 84.798 85.6011C84.4339 85.6538 84.1884 85.6893 83.9481 85.7955C83.839 85.8438 83.713 85.9259 83.5478 86.059C83.4377 86.1477 83.3597 86.216 83.2712 86.2935C83.1955 86.3598 83.1122 86.4328 82.9944 86.5311C82.5958 86.8638 81.9808 87.3281 81.1336 87.3281C80.2863 87.3281 79.6713 86.8638 79.2727 86.5311C79.155 86.4328 79.0716 86.3598 78.9959 86.2935C78.9075 86.216 78.8295 86.1477 78.7193 86.059C78.5541 85.9259 78.4282 85.8438 78.3191 85.7955C78.0788 85.6893 77.8332 85.6538 77.4692 85.6011C77.3462 85.5833 77.2097 85.5635 77.0553 85.5384C76.536 85.454 75.7866 85.2947 75.229 84.663C74.7017 84.0656 74.6977 83.3002 74.6984 82.8768C74.6986 82.7904 74.6995 82.7142 74.7003 82.644C74.7021 82.4987 74.7035 82.3795 74.6972 82.2505C74.6886 82.0743 74.667 81.9683 74.6411 81.9007C74.6178 81.8397 74.5676 81.7536 74.4595 81.6229C74.3828 81.5301 74.3109 81.453 74.2227 81.3583C74.171 81.3028 74.1136 81.2412 74.0463 81.1668C73.7499 80.8394 73.2605 80.2716 73.2605 79.4551C73.2605 78.6385 73.7499 78.0707 74.0463 77.7433C74.1136 77.6689 74.171 77.6074 74.2227 77.5518C74.3109 77.4572 74.3828 77.3801 74.4595 77.2872C74.5676 77.1565 74.6178 77.0704 74.6411 77.0095C74.6499 76.9865 74.6664 76.9215 74.6655 76.7727C74.6648 76.6547 74.6554 76.5404 74.6432 76.3907C74.6389 76.339 74.6343 76.2831 74.6296 76.2213C74.6291 76.2142 74.6285 76.207 74.628 76.1996C74.5998 75.8319 74.5422 75.0807 75.0255 74.4872C75.5147 73.8863 76.0868 73.6898 76.5559 73.5785C76.6848 73.5479 76.7957 73.5243 76.8949 73.5031C77.1703 73.4444 77.3551 73.405 77.5837 73.2894C77.7596 73.2004 77.9594 73.0711 78.2052 72.9009C78.2707 72.8556 78.3411 72.8061 78.4147 72.7544C78.597 72.6264 78.7992 72.4844 78.996 72.356Z" fill="black"/>
<path fill-rule="evenodd" clip-rule="evenodd" d="M84.5711 79.3486C84.5711 81.2973 83.0066 82.9081 81.0387 82.9081C79.0708 82.9081 77.5063 81.2973 77.5063 79.3486C77.5063 77.3999 79.0708 75.7892 81.0387 75.7892C83.0066 75.7892 84.5711 77.3999 84.5711 79.3486ZM81.0387 81.4877C82.2051 81.4877 83.1507 80.53 83.1507 79.3486C83.1507 78.1672 82.2051 77.2095 81.0387 77.2095C79.8723 77.2095 78.9267 78.1672 78.9267 79.3486C78.9267 80.53 79.8723 81.4877 81.0387 81.4877Z" fill="black"/>
</svg>
