<svg width="128" height="128" viewBox="0 0 128 128" fill="none" xmlns="http://www.w3.org/2000/svg">
<path d="M95.7865 64.7762C95.7865 82.3312 81.5553 96.5624 64.0003 96.5624C46.4453 96.5624 32.2141 82.3312 32.2141 64.7762C32.2141 47.2212 46.4453 32.99 64.0003 32.99C81.5553 32.99 95.7865 47.2212 95.7865 64.7762Z" fill="white"/>
<path fill-rule="evenodd" clip-rule="evenodd" d="M97.7865 64.7762C97.7865 83.4358 82.6599 98.5624 64.0003 98.5624C45.3407 98.5624 30.2141 83.4358 30.2141 64.7762C30.2141 46.1166 45.3407 30.99 64.0003 30.99C82.6599 30.99 97.7865 46.1166 97.7865 64.7762ZM64.0003 96.5624C81.5553 96.5624 95.7865 82.3312 95.7865 64.7762C95.7865 47.2212 81.5553 32.99 64.0003 32.99C46.4453 32.99 32.2141 47.2212 32.2141 64.7762C32.2141 82.3312 46.4453 96.5624 64.0003 96.5624Z" fill="black"/>
<path fill-rule="evenodd" clip-rule="evenodd" d="M59.9996 94.5627C77.5546 94.5627 91.7857 80.3315 91.7857 62.7765C91.7857 51.1212 85.5126 40.9311 76.1585 35.3983C87.6809 40.1723 95.7862 51.5277 95.7862 64.7762C95.7862 82.3312 81.555 96.5624 64 96.5624C58.1003 96.5624 52.576 94.9551 47.8411 92.1544C51.5865 93.7063 55.693 94.5627 59.9996 94.5627Z" fill="black"/>
<path fill-rule="evenodd" clip-rule="evenodd" d="M27.0126 43.028C30.2154 53.378 36.8894 65.7613 46.2238 77.792C55.5582 89.8228 65.895 99.3642 75.1248 105.038C79.733 107.871 84.1595 109.798 88.1142 110.535C92.0663 111.27 95.7876 110.851 98.6361 108.641C101.485 106.431 102.815 102.931 103.084 98.9196C103.354 94.9059 102.587 90.1395 100.987 84.9719C97.7845 74.6218 91.1106 62.2386 81.7762 50.2078C72.4418 38.1771 62.105 28.6357 52.8752 22.9618C48.267 20.1289 43.8405 18.2017 39.8858 17.4653C35.9336 16.7294 32.2124 17.1486 29.3639 19.3587C26.5154 21.5688 25.1848 25.0692 24.9157 29.0802C24.6465 33.0939 25.4135 37.8604 27.0126 43.028ZM47.804 76.566C29.3521 52.7841 21.6451 27.8789 30.5899 20.9389C39.5347 13.9988 61.7441 27.6518 80.196 51.4338C98.6479 75.2158 106.355 100.121 97.4101 107.061C88.4653 114.001 66.2559 100.348 47.804 76.566Z" fill="black"/>
<path fill-rule="evenodd" clip-rule="evenodd" d="M105.565 52.1883C100.087 61.7073 90.7608 72.4049 78.9376 82.1406C67.1143 91.8762 54.8261 98.9767 44.4329 102.526C39.2473 104.297 34.3764 105.239 30.1906 105.08C26.0089 104.921 22.1483 103.634 19.6102 100.552C17.0721 97.4696 16.5499 93.4338 17.1964 89.2992C17.8434 85.1608 19.7019 80.5609 22.435 75.8116C27.9129 66.2925 37.2392 55.5949 49.0624 45.8593C60.8857 36.1237 73.1739 29.0231 83.5671 25.4735C88.7526 23.7024 93.6236 22.761 97.8093 22.92C101.991 23.0788 105.852 24.3656 108.39 27.4479C110.928 30.5303 111.45 34.5661 110.804 38.7006C110.157 42.8391 108.298 47.4389 105.565 52.1883ZM77.0306 79.8246C100.267 60.6908 113.27 38.0947 106.074 29.3549C98.8773 20.6152 74.2062 29.0413 50.9694 48.1752C27.7326 67.3091 14.7295 89.9052 21.9261 98.6449C29.1227 107.385 53.7938 98.9585 77.0306 79.8246Z" fill="black"/>
<path d="M111.601 42.9932C111.601 45.1017 109.892 46.8109 107.783 46.8109C105.675 46.8109 103.965 45.1017 103.965 42.9932C103.965 40.8847 105.675 39.1754 107.783 39.1754C109.892 39.1754 111.601 40.8847 111.601 42.9932Z" fill="black"/>
<path d="M55.5698 46.8109C55.5698 48.9194 53.8605 50.6286 51.7521 50.6286C49.6436 50.6286 47.9343 48.9194 47.9343 46.8109C47.9343 44.7024 49.6436 42.9932 51.7521 42.9932C53.8605 42.9932 55.5698 44.7024 55.5698 46.8109Z" fill="black"/>
<path d="M54.9522 97.2837C54.9522 100.539 52.3129 103.179 49.0571 103.179C45.8014 103.179 43.1621 100.539 43.1621 97.2837C43.1621 94.0279 45.8014 91.3886 49.0571 91.3886C52.3129 91.3886 54.9522 94.0279 54.9522 97.2837Z" fill="black"/>
</svg>
