<svg width="113" height="102" viewBox="0 0 113 102" fill="none" xmlns="http://www.w3.org/2000/svg">
<path d="M56.8467 33.2861V32.9755L56.6271 32.7558L40.2017 16.3304C40.1836 16.3123 40.1712 16.2954 40.1633 16.2817C40.1621 16.2797 40.161 16.2778 40.1601 16.276C40.1718 16.2605 40.1849 16.2487 40.198 16.2404C40.2165 16.2286 40.2385 16.2212 40.2667 16.2212H73.5642C73.5923 16.2212 73.6143 16.2286 73.6328 16.2404C73.64 16.245 73.6473 16.2506 73.6543 16.2574C73.6594 16.2984 73.6581 16.3305 73.6547 16.3514C73.6545 16.3529 73.6543 16.3542 73.654 16.3555L57.2535 32.756L57.0338 32.9757V33.2864V47.7268V48.2855L57.5692 48.4454L65.2112 50.7281L65.2276 50.733L65.2441 50.7371C65.2869 50.7478 65.3229 50.7719 65.346 50.7997C65.3682 50.8263 65.3706 50.8456 65.3706 50.853C65.3706 50.853 65.3706 50.8533 65.3706 50.8538C65.3705 50.8545 65.3704 50.8556 65.37 50.8571C65.3694 50.8599 65.3682 50.8642 65.3656 50.87C65.3603 50.8821 65.3506 50.8973 65.336 50.9118C65.3214 50.9264 65.3063 50.9361 65.2942 50.9415C65.2884 50.944 65.284 50.9453 65.2813 50.9459C65.2786 50.9465 65.2772 50.9465 65.2771 50.9465H48.6036C48.549 50.9465 48.5221 50.9293 48.5131 50.9218C48.5073 50.9169 48.5054 50.9138 48.5047 50.9115C48.4996 50.8528 48.5147 50.8158 48.5249 50.7995C48.5302 50.7911 48.5342 50.7879 48.535 50.7873L48.5351 50.7873C48.5354 50.787 48.5356 50.7869 48.5372 50.7865L48.5546 50.7821L48.5718 50.7769L56.3131 48.4447L56.8467 48.2839V47.7266V33.2861ZM73.6506 16.3692C73.6506 16.3692 73.6508 16.3688 73.6511 16.3679L73.6506 16.3692ZM56.4099 32.3277L56.9382 32.856L57.4685 32.3297L63.9197 25.9283L65.5027 24.3574L63.2922 24.6525C62.5483 24.7518 61.7981 24.8444 61.0094 24.8444C59.5667 24.8444 57.9881 24.5652 56.4593 23.8708C53.4576 22.4783 50.5744 22.9089 49.0263 23.3894L47.8398 23.7576L48.7182 24.636L56.4099 32.3277ZM54.0438 49.2912L54.2605 50.7592H59.5208L59.7375 49.2912L57.1074 48.4973L56.8906 48.4318L56.6739 48.4973L54.0438 49.2912ZM65.9373 23.7162L66.0894 23.6592L66.2043 23.5443L72.1095 17.6391L73.3898 16.3588H71.5791H42.3012H40.4906L41.7709 17.6391L47.3784 23.2466L47.714 23.5822L48.1609 23.4226C49.4968 22.9455 52.878 21.9366 56.5228 23.6436L56.5272 23.6456C58.5771 24.5896 60.7348 24.6737 62.4503 24.4982C64.169 24.3224 65.4988 23.8806 65.9373 23.7162Z" fill="white" stroke="white" stroke-width="1.5"/>
<path fill-rule="evenodd" clip-rule="evenodd" d="M61.8372 18.6035C62.752 18.2757 63.6598 18.2151 64.3711 18.3828L62.9407 2.18783C62.9126 1.7946 63.2085 1.44814 63.6021 1.42006C63.9953 1.39164 64.3417 1.68782 64.3698 2.08106L64.5133 3.96901C68.2097 9.41886 75.4119 6.5689 70.8331 14.4037C71.6575 6.9979 66.7329 8.3656 64.8439 8.32877L65.8279 18.6362C65.9563 20.3777 64.9366 21.7908 63.2045 22.4131C61.462 23.0376 59.7428 22.6926 59.3651 21.6406C58.987 20.5896 60.0949 19.2305 61.8372 18.6035Z" fill="white"/>
<path d="M20.3446 76.9333V76.7333H20.9646C21.2179 76.7333 21.4379 76.6933 21.6246 76.6133C21.8246 76.5333 21.9713 76.4 22.0646 76.2133C22.1713 76.0133 22.2246 75.7333 22.2246 75.3733V64.1733C22.2246 63.8133 22.1713 63.54 22.0646 63.3533C21.9579 63.1667 21.8113 63.04 21.6246 62.9733C21.4379 62.8933 21.2179 62.8533 20.9646 62.8533H20.3446V62.6533H26.8246V62.8533H26.2046C25.9646 62.8533 25.7446 62.8933 25.5446 62.9733C25.3579 63.04 25.2113 63.1667 25.1046 63.3533C25.0113 63.54 24.9646 63.8067 24.9646 64.1533V76.7333H28.1846C28.9579 76.7333 29.5779 76.6267 30.0446 76.4133C30.5246 76.2 30.8846 75.8533 31.1246 75.3733C31.3646 74.8933 31.5113 74.2467 31.5646 73.4333L31.6246 72.5333H31.8246L31.6646 76.9333H20.3446ZM33.1766 76.9333V76.7333H33.7966C34.05 76.7333 34.27 76.6933 34.4566 76.6133C34.6566 76.5333 34.8033 76.4 34.8966 76.2133C35.0033 76.0133 35.0566 75.7333 35.0566 75.3733V64.1733C35.0566 63.8133 35.0033 63.54 34.8966 63.3533C34.79 63.1667 34.6433 63.04 34.4566 62.9733C34.27 62.8933 34.05 62.8533 33.7966 62.8533H33.1766V62.6533H39.6566V62.8533H39.0366C38.7833 62.8533 38.5566 62.8933 38.3566 62.9733C38.17 63.0533 38.03 63.1933 37.9366 63.3933C37.8433 63.58 37.7966 63.8533 37.7966 64.2133V75.3733C37.7966 75.7333 37.8433 76.0133 37.9366 76.2133C38.03 76.4 38.17 76.5333 38.3566 76.6133C38.5566 76.6933 38.7833 76.7333 39.0366 76.7333H39.6566V76.9333H33.1766ZM51.6905 81.6533C51.1172 81.6533 50.5505 81.5733 49.9905 81.4133C49.4439 81.2533 48.9372 80.9867 48.4705 80.6133C48.0039 80.2533 47.6172 79.78 47.3105 79.1933C47.0172 78.62 46.8372 77.9067 46.7705 77.0533C45.5705 76.88 44.5705 76.4733 43.7705 75.8333C42.9839 75.18 42.3905 74.34 41.9905 73.3133C41.5905 72.2733 41.3905 71.0867 41.3905 69.7533C41.3905 68.2733 41.6305 66.9867 42.1105 65.8933C42.6039 64.8 43.3372 63.9533 44.3105 63.3533C45.2972 62.74 46.5305 62.4333 48.0105 62.4333C49.4239 62.4333 50.6172 62.74 51.5905 63.3533C52.5639 63.9533 53.3039 64.8067 53.8105 65.9133C54.3172 67.0067 54.5705 68.2933 54.5705 69.7733C54.5705 71.04 54.3839 72.1733 54.0105 73.1733C53.6372 74.16 53.0839 74.98 52.3505 75.6333C51.6305 76.2733 50.7439 76.7133 49.6905 76.9533C49.7039 77.78 49.7772 78.48 49.9105 79.0533C50.0439 79.64 50.2305 80.1067 50.4705 80.4533C50.7105 80.8 51.0039 81.0533 51.3505 81.2133C51.7105 81.3733 52.1239 81.4533 52.5905 81.4533H52.9105V81.6533H51.6905ZM47.9905 76.9333C48.6305 76.9333 49.1772 76.8 49.6305 76.5333C50.0972 76.2533 50.4772 75.8267 50.7705 75.2533C51.0639 74.6667 51.2839 73.92 51.4305 73.0133C51.5772 72.1067 51.6505 71.0267 51.6505 69.7733C51.6505 68.52 51.5772 67.4467 51.4305 66.5533C51.2839 65.6467 51.0639 64.9067 50.7705 64.3333C50.4772 63.7467 50.1039 63.32 49.6505 63.0533C49.1972 62.7733 48.6505 62.6333 48.0105 62.6333C47.3705 62.6333 46.8172 62.7733 46.3505 63.0533C45.8839 63.32 45.4972 63.7467 45.1905 64.3333C44.8972 64.9067 44.6772 65.6467 44.5305 66.5533C44.3972 67.4467 44.3305 68.52 44.3305 69.7733C44.3305 71.0267 44.3972 72.1067 44.5305 73.0133C44.6772 73.92 44.8972 74.6667 45.1905 75.2533C45.4839 75.8267 45.8639 76.2533 46.3305 76.5333C46.7972 76.8 47.3505 76.9333 47.9905 76.9333ZM63.2412 77.1333C62.1212 77.1333 61.1612 76.98 60.3612 76.6733C59.5612 76.3667 58.9478 75.88 58.5212 75.2133C58.0945 74.5467 57.8812 73.6733 57.8812 72.5933V64.1333C57.8812 63.7867 57.8278 63.5267 57.7212 63.3533C57.6145 63.1667 57.4678 63.04 57.2812 62.9733C57.0945 62.8933 56.8745 62.8533 56.6212 62.8533H56.0012V62.6533H62.4812V62.8533H61.8612C61.6078 62.8533 61.3878 62.8933 61.2012 62.9733C61.0145 63.0533 60.8678 63.1867 60.7612 63.3733C60.6545 63.56 60.6012 63.8333 60.6012 64.1933V73.4333C60.6012 74.3 60.7345 74.98 61.0012 75.4733C61.2678 75.9667 61.6345 76.32 62.1012 76.5333C62.5678 76.7333 63.1078 76.8333 63.7212 76.8333C64.6012 76.8333 65.3478 76.6733 65.9612 76.3533C66.5745 76.0333 67.0412 75.5733 67.3612 74.9733C67.6945 74.36 67.8612 73.64 67.8612 72.8133V64.1333C67.8612 63.7867 67.8078 63.5267 67.7012 63.3533C67.6078 63.1667 67.4612 63.04 67.2612 62.9733C67.0745 62.8933 66.8612 62.8533 66.6212 62.8533H65.7412V62.6533H70.0812V62.8533H69.3212C69.0678 62.8533 68.8478 62.8933 68.6612 62.9733C68.4745 63.0533 68.3278 63.1933 68.2212 63.3933C68.1145 63.58 68.0612 63.8533 68.0612 64.2133V72.8333C68.0612 73.7533 67.8745 74.5333 67.5012 75.1733C67.1412 75.8133 66.6012 76.3 65.8812 76.6333C65.1612 76.9667 64.2812 77.1333 63.2412 77.1333ZM71.0477 76.9333V76.7333H71.6677C71.921 76.7333 72.141 76.6933 72.3277 76.6133C72.5277 76.5333 72.6744 76.4 72.7677 76.2133C72.8744 76.0133 72.9277 75.7333 72.9277 75.3733V64.1733C72.9277 63.8133 72.8744 63.54 72.7677 63.3533C72.661 63.1667 72.5144 63.04 72.3277 62.9733C72.141 62.8933 71.921 62.8533 71.6677 62.8533H71.0477V62.6533H77.5277V62.8533H76.9077C76.6544 62.8533 76.4277 62.8933 76.2277 62.9733C76.041 63.0533 75.901 63.1933 75.8077 63.3933C75.7144 63.58 75.6677 63.8533 75.6677 64.2133V75.3733C75.6677 75.7333 75.7144 76.0133 75.8077 76.2133C75.901 76.4 76.041 76.5333 76.2277 76.6133C76.4277 76.6933 76.6544 76.7333 76.9077 76.7333H77.5277V76.9333H71.0477ZM78.8016 76.9333V76.7333H79.4216C79.675 76.7333 79.895 76.6933 80.0816 76.6133C80.2816 76.5333 80.4283 76.4 80.5216 76.2133C80.6283 76.0133 80.6816 75.7333 80.6816 75.3733V64.1333C80.6816 63.7867 80.6283 63.5267 80.5216 63.3533C80.415 63.1667 80.2683 63.04 80.0816 62.9733C79.895 62.8933 79.675 62.8533 79.4216 62.8533H78.8016V62.6533H85.2216C86.6616 62.6533 87.8883 62.92 88.9016 63.4533C89.9283 63.9733 90.715 64.7533 91.2616 65.7933C91.8083 66.8333 92.0816 68.1133 92.0816 69.6333C92.0816 71.0867 91.8216 72.36 91.3016 73.4533C90.795 74.5467 90.035 75.4 89.0216 76.0133C88.0083 76.6267 86.735 76.9333 85.2016 76.9333H78.8016ZM84.7616 76.7333C85.8016 76.7333 86.6416 76.4933 87.2816 76.0133C87.935 75.5333 88.4083 74.7733 88.7016 73.7333C88.995 72.68 89.1416 71.3067 89.1416 69.6133C89.1416 68.0133 88.995 66.72 88.7016 65.7333C88.4083 64.7333 87.9416 64.0067 87.3016 63.5533C86.6616 63.0867 85.8216 62.8533 84.7816 62.8533H83.4016V76.7333H84.7616ZM7.58092 98.9333V98.7333H8.78092C9.03425 98.7333 9.25425 98.7 9.44092 98.6333C9.62758 98.5533 9.77425 98.42 9.88092 98.2333C9.98758 98.0467 10.0409 97.78 10.0409 97.4333V86.1333C10.0409 85.7867 9.98758 85.5267 9.88092 85.3533C9.77425 85.1667 9.62758 85.04 9.44092 84.9733C9.25425 84.8933 9.03425 84.8533 8.78092 84.8533H7.58092V84.6533H12.5009L17.0009 95.9933L20.8009 84.6533H25.2409V84.8533H24.6209C24.3676 84.8533 24.1409 84.8933 23.9409 84.9733C23.7543 85.0533 23.6076 85.1933 23.5009 85.3933C23.4076 85.58 23.3609 85.8533 23.3609 86.2133V97.3733C23.3609 97.7333 23.4076 98.0133 23.5009 98.2133C23.6076 98.4 23.7543 98.5333 23.9409 98.6133C24.1409 98.6933 24.3676 98.7333 24.6209 98.7333H25.2409V98.9333H19.2409V98.7333H19.4009C19.6809 98.7333 19.9209 98.7 20.1209 98.6333C20.3209 98.5533 20.4676 98.4267 20.5609 98.2533C20.6676 98.0667 20.7209 97.8133 20.7209 97.4933V85.5133L16.2409 98.9333H15.4609L10.2409 85.6733V97.3733C10.2409 97.7333 10.2943 98.0133 10.4009 98.2133C10.5209 98.4 10.6943 98.5333 10.9209 98.6133C11.1609 98.6933 11.4476 98.7333 11.7809 98.7333H12.4009V98.9333H7.58092ZM25.9262 98.9333V98.7333H26.6662C26.9329 98.7333 27.1596 98.6867 27.3462 98.5933C27.5329 98.5 27.6929 98.3467 27.8262 98.1333C27.9729 97.9067 28.1129 97.6067 28.2462 97.2333L32.7662 84.6533H34.3662L39.0462 97.4333C39.1796 97.7667 39.3062 98.0267 39.4262 98.2133C39.5596 98.4 39.7062 98.5333 39.8662 98.6133C40.0262 98.6933 40.2196 98.7333 40.4462 98.7333H40.5862V98.9333H34.4062V98.7333H35.2462C35.6329 98.7333 35.9129 98.68 36.0862 98.5733C36.2729 98.4667 36.3662 98.2867 36.3662 98.0333C36.3662 97.9533 36.3529 97.8667 36.3262 97.7733C36.3129 97.6667 36.2929 97.5533 36.2662 97.4333C36.2529 97.3133 36.2196 97.1867 36.1662 97.0533L34.9862 93.7333H29.7262L28.6062 96.8533C28.5529 97 28.5062 97.14 28.4662 97.2733C28.4262 97.4067 28.3929 97.5267 28.3662 97.6333C28.3396 97.74 28.3262 97.84 28.3262 97.9333C28.3262 98.2267 28.4396 98.4333 28.6662 98.5533C28.8929 98.6733 29.2396 98.7333 29.7062 98.7333H30.7662V98.9333H25.9262ZM29.8062 93.5333H34.9262L33.5862 89.7333C33.4662 89.36 33.3329 88.96 33.1862 88.5333C33.0396 88.0933 32.8996 87.66 32.7662 87.2333C32.6462 86.7933 32.5396 86.4067 32.4462 86.0733C32.3662 86.3267 32.2796 86.6 32.1862 86.8933C32.0929 87.1733 31.9929 87.46 31.8862 87.7533C31.7796 88.0467 31.6729 88.3467 31.5662 88.6533C31.4596 88.9467 31.3529 89.2333 31.2462 89.5133L29.8062 93.5333ZM41.2333 98.9333V98.7333H41.8533C42.1066 98.7333 42.3266 98.7 42.5133 98.6333C42.6999 98.5533 42.8466 98.42 42.9533 98.2333C43.0599 98.0467 43.1133 97.78 43.1133 97.4333V86.1733C43.1133 85.8133 43.0599 85.54 42.9533 85.3533C42.8466 85.1667 42.6999 85.04 42.5133 84.9733C42.3266 84.8933 42.1066 84.8533 41.8533 84.8533H41.2333V84.6533H51.9133L52.0333 88.2733H51.8333L51.7733 87.5933C51.7333 86.9133 51.5999 86.3733 51.3733 85.9733C51.1599 85.5733 50.8399 85.2867 50.4133 85.1133C49.9866 84.94 49.4199 84.8533 48.7133 84.8533H45.8533V91.3733H50.6933V91.5733H45.8533V98.7333H49.3333C50.0399 98.7333 50.6133 98.6467 51.0533 98.4733C51.4933 98.3 51.8266 98.0133 52.0533 97.6133C52.2799 97.2 52.4133 96.6533 52.4533 95.9733L52.5133 95.3133H52.7133L52.5733 98.9333H41.2333ZM58.5453 99.1333C57.7853 99.1333 57.1253 99.06 56.5653 98.9133C56.0186 98.7533 55.5653 98.54 55.2053 98.2733C54.8453 97.9933 54.5786 97.6867 54.4053 97.3533C54.2453 97.02 54.1653 96.6733 54.1653 96.3133C54.1653 95.9267 54.252 95.6133 54.4253 95.3733C54.5986 95.1333 54.832 94.9533 55.1253 94.8333C55.432 94.7133 55.7586 94.6533 56.1053 94.6533C56.1186 95.7467 56.232 96.6067 56.4453 97.2333C56.672 97.86 56.992 98.3 57.4053 98.5533C57.8186 98.8067 58.3053 98.9333 58.8653 98.9333C59.692 98.9333 60.3653 98.7067 60.8853 98.2533C61.4053 97.8 61.6653 97.12 61.6653 96.2133C61.6653 95.6 61.532 95.1 61.2653 94.7133C61.012 94.3133 60.6253 93.96 60.1053 93.6533C59.5986 93.3467 58.9653 93.0333 58.2053 92.7133C57.6186 92.46 57.092 92.1933 56.6253 91.9133C56.172 91.6333 55.7853 91.3267 55.4653 90.9933C55.1453 90.6467 54.8986 90.26 54.7253 89.8333C54.5653 89.3933 54.4853 88.9 54.4853 88.3533C54.4853 87.54 54.6786 86.8467 55.0653 86.2733C55.4653 85.6867 56.0253 85.24 56.7453 84.9333C57.4653 84.6133 58.3186 84.4533 59.3053 84.4533C60.132 84.4533 60.8386 84.56 61.4253 84.7733C62.012 84.9733 62.4653 85.2467 62.7853 85.5933C63.1053 85.94 63.2653 86.3267 63.2653 86.7533C63.2653 87.1933 63.0786 87.56 62.7053 87.8533C62.3453 88.1333 61.8186 88.2733 61.1253 88.2733C61.1253 87.4467 61.052 86.7733 60.9053 86.2533C60.772 85.72 60.5386 85.3267 60.2053 85.0733C59.8853 84.8067 59.452 84.6733 58.9053 84.6733C58.492 84.6733 58.1053 84.7533 57.7453 84.9133C57.3853 85.0733 57.092 85.34 56.8653 85.7133C56.652 86.0733 56.5453 86.56 56.5453 87.1733C56.5453 87.7333 56.6586 88.2133 56.8853 88.6133C57.1253 89 57.4986 89.3533 58.0053 89.6733C58.512 89.9933 59.1853 90.3333 60.0253 90.6933C60.8386 91.04 61.5253 91.4 62.0853 91.7733C62.6586 92.1467 63.092 92.5867 63.3853 93.0933C63.6786 93.5867 63.8253 94.1933 63.8253 94.9133C63.8253 95.7533 63.6186 96.4933 63.2053 97.1333C62.792 97.76 62.192 98.2533 61.4053 98.6133C60.6186 98.96 59.6653 99.1333 58.5453 99.1333ZM67.5609 98.9333V98.7333H68.1809C68.4476 98.7333 68.6743 98.6933 68.8609 98.6133C69.0476 98.5333 69.1876 98.4 69.2809 98.2133C69.3876 98.0133 69.4409 97.7333 69.4409 97.3733V84.8533H68.0209C67.3276 84.8533 66.7609 84.94 66.3209 85.1133C65.8943 85.2867 65.5743 85.5733 65.3609 85.9733C65.1476 86.3733 65.0143 86.9133 64.9609 87.5933L64.9209 88.3933H64.7209L64.8409 84.6533H76.7809L76.9209 88.3933H76.7209L76.6609 87.5933C76.6209 86.9133 76.4943 86.3733 76.2809 85.9733C76.0676 85.5733 75.7409 85.2867 75.3009 85.1133C74.8743 84.94 74.3143 84.8533 73.6209 84.8533H72.1809V97.3733C72.1809 97.7333 72.2276 98.0133 72.3209 98.2133C72.4276 98.4 72.5743 98.5333 72.7609 98.6133C72.9609 98.6933 73.1876 98.7333 73.4409 98.7333H74.0609V98.9333H67.5609ZM77.8348 98.9333V98.7333H78.4548C78.7082 98.7333 78.9282 98.7 79.1148 98.6333C79.3015 98.5533 79.4482 98.42 79.5548 98.2333C79.6615 98.0467 79.7148 97.78 79.7148 97.4333V86.1333C79.7148 85.7867 79.6615 85.5267 79.5548 85.3533C79.4482 85.1667 79.3015 85.04 79.1148 84.9733C78.9282 84.8933 78.7082 84.8533 78.4548 84.8533H77.8348V84.6533H83.8748C85.1015 84.6533 86.1082 84.7933 86.8948 85.0733C87.6815 85.3533 88.2615 85.7733 88.6348 86.3333C89.0215 86.8933 89.2148 87.5733 89.2148 88.3733C89.2148 89.1067 89.0682 89.72 88.7748 90.2133C88.4948 90.7067 88.1215 91.1067 87.6548 91.4133C87.2015 91.72 86.7082 91.96 86.1748 92.1333L88.6148 96.1333C88.9615 96.6933 89.2482 97.1467 89.4748 97.4933C89.7148 97.84 89.9215 98.1 90.0948 98.2733C90.2682 98.4467 90.4215 98.5667 90.5548 98.6333C90.7015 98.7 90.8482 98.7333 90.9948 98.7333H91.0348V98.9333H90.5348C89.9215 98.9333 89.3948 98.9067 88.9548 98.8533C88.5282 98.8 88.1548 98.7133 87.8348 98.5933C87.5148 98.46 87.2282 98.2733 86.9748 98.0333C86.7348 97.78 86.4948 97.4533 86.2548 97.0533L83.4948 92.2533H82.4348V97.4333C82.4348 97.78 82.4815 98.0467 82.5748 98.2333C82.6815 98.42 82.8282 98.5533 83.0148 98.6333C83.2148 98.7 83.4415 98.7333 83.6948 98.7333H84.3148V98.9333H77.8348ZM83.6548 92.0533C84.2948 92.0533 84.8082 91.9333 85.1948 91.6933C85.5815 91.4533 85.8615 91.0733 86.0348 90.5533C86.2215 90.02 86.3148 89.3267 86.3148 88.4733C86.3148 87.62 86.2215 86.9333 86.0348 86.4133C85.8482 85.88 85.5548 85.4867 85.1548 85.2333C84.7682 84.98 84.2548 84.8533 83.6148 84.8533H82.4348V92.0533H83.6548ZM98.2737 99.1333C96.7937 99.1333 95.5671 98.8267 94.5937 98.2133C93.6204 97.6 92.8871 96.74 92.3937 95.6333C91.9137 94.5267 91.6737 93.2333 91.6737 91.7533C91.6737 90.2733 91.9137 88.9867 92.3937 87.8933C92.8871 86.8 93.6204 85.9533 94.5937 85.3533C95.5804 84.74 96.8137 84.4333 98.2937 84.4333C99.7071 84.4333 100.9 84.74 101.874 85.3533C102.847 85.9533 103.587 86.8067 104.094 87.9133C104.6 89.0067 104.854 90.2933 104.854 91.7733C104.854 93.2533 104.6 94.5467 104.094 95.6533C103.587 96.7467 102.84 97.6 101.854 98.2133C100.88 98.8267 99.6871 99.1333 98.2737 99.1333ZM98.2737 98.9333C98.9137 98.9333 99.4604 98.8 99.9137 98.5333C100.38 98.2533 100.76 97.8267 101.054 97.2533C101.347 96.6667 101.567 95.92 101.714 95.0133C101.86 94.1067 101.934 93.0267 101.934 91.7733C101.934 90.52 101.86 89.4467 101.714 88.5533C101.567 87.6467 101.347 86.9067 101.054 86.3333C100.76 85.7467 100.38 85.32 99.9137 85.0533C99.4604 84.7733 98.9204 84.6333 98.2937 84.6333C97.6537 84.6333 97.1004 84.7733 96.6337 85.0533C96.1671 85.32 95.7804 85.7467 95.4737 86.3333C95.1804 86.9067 94.9604 87.6467 94.8137 88.5533C94.6804 89.4467 94.6137 90.52 94.6137 91.7733C94.6137 93.0267 94.6804 94.1067 94.8137 95.0133C94.9604 95.92 95.1804 96.6667 95.4737 97.2533C95.7671 97.8267 96.1471 98.2533 96.6137 98.5333C97.0804 98.8 97.6337 98.9333 98.2737 98.9333Z" fill="white"/>
</svg>
